<svg xmlns="http://www.w3.org/2000/svg" width="82" height="34" viewBox="0 0 82 34">
    <g fill="none" fill-rule="evenodd">
        <path fill="#FFC100" fill-rule="nonzero" d="M.184 10.706l12.645-7.301.855-.493c7.737-4.467 17.63-1.816 22.097 5.92 4.467 7.738 1.816 17.631-5.92 22.098l-.176.101c-7.359 4.25-16.769 1.728-21.018-5.631L.184 10.706z"/>
        <path fill="#3DA5F4" fill-rule="nonzero" d="M.184 10.706l12.645-7.301.855-.493c7.737-4.467 17.63-1.816 22.097 5.92 4.467 7.738 1.816 17.631-5.92 22.098l-.176.101c-7.359 4.25-16.769 1.728-21.018-5.631L.184 10.706z"/>
        <path fill="#FFF" d="M17.206 26.324V9.235H27.49v2.287h-7.418v5.04h5.783v2.287h-5.783v7.475zM55.85 18.27h-6.08v6.23H46V8.86h10.463v2.91H49.77v3.6h6.08v2.9zm6.274 6.23h-3.631V12.877h3.63V24.5zM58.278 9.88c0-.516.186-.938.558-1.268.373-.33.856-.494 1.45-.494.595 0 1.078.165 1.45.494.373.33.56.752.56 1.268s-.187.938-.56 1.267c-.372.33-.855.495-1.45.495-.594 0-1.077-.165-1.45-.495-.372-.329-.558-.751-.558-1.267zM68.61 24.5h-3.63V8h3.63v16.5zm7.315-5.07l1.934-6.553h3.878l-4.737 13.567-.204.494c-.674 1.504-1.862 2.256-3.567 2.256-.473 0-.97-.071-1.493-.215v-2.588h.473c.508 0 .897-.074 1.165-.22.269-.147.467-.41.596-.79l.29-.774-4.039-11.73h3.868l1.836 6.553z"/>
    </g>
</svg>
