<?xml version="1.0" encoding="utf-8"?>
<!-- Generator: Adobe Illustrator 16.0.0, SVG Export Plug-In . SVG Version: 6.00 Build 0)  -->
<!DOCTYPE svg PUBLIC "-//W3C//DTD SVG 1.1//EN" "http://www.w3.org/Graphics/SVG/1.1/DTD/svg11.dtd">
<svg version="1.1" id="Layer_1" xmlns="http://www.w3.org/2000/svg" xmlns:xlink="http://www.w3.org/1999/xlink" x="0px" y="0px"
	 width="16px" height="11px" viewBox="0 0 16 11" enable-background="new 0 0 16 11" xml:space="preserve">
<rect y="0" fill="#FFFFFF" stroke="#333333" stroke-width="0.25" stroke-miterlimit="10" width="16.014" height="10.988"/>
<rect fill="none" width="16" height="10.987"/>
<rect x="12.618" fill="#EA0020" width="3.382" height="10.939"/>
<rect fill="#EA0020" width="3.382" height="11.003"/>
<rect x="3.344" fill="#FFFFFF" width="9.288" height="11.003"/>
<g>
	<defs>
		<rect id="SVGID_1_" y="0.012" width="16" height="10.988"/>
	</defs>
	<clipPath id="SVGID_2_">
		<use xlink:href="#SVGID_1_"  overflow="visible"/>
	</clipPath>
	<path clip-path="url(#SVGID_2_)" fill="#EA0020" d="M8,1.437L7.444,2.705C7.382,2.844,7.27,2.83,7.156,2.754L6.754,2.497
		l0.299,1.951C7.117,4.805,6.914,4.805,6.814,4.65L6.114,3.688L6,4.176C5.987,4.24,5.929,4.309,5.842,4.292L4.956,4.063l0.233,1.038
		c0.051,0.232,0.089,0.328-0.05,0.388L4.822,5.672l1.527,1.52C6.409,7.25,6.44,7.354,6.418,7.447L6.284,7.984
		C6.81,7.91,7.281,7.842,7.806,7.768c0.047,0,0.126,0.049,0.124,0.115L7.861,9.852h0.255l-0.04-1.965
		c0-0.064,0.07-0.119,0.115-0.119C8.718,7.842,9.188,7.91,9.715,7.984L9.58,7.447C9.56,7.354,9.591,7.25,9.65,7.191l1.525-1.52
		L10.86,5.488c-0.14-0.06-0.101-0.155-0.051-0.388l0.233-1.038l-0.887,0.229c-0.087,0.017-0.144-0.052-0.157-0.116L9.885,3.688
		L9.184,4.65c-0.1,0.154-0.302,0.154-0.238-0.202l0.299-1.951l-0.4,0.257C8.73,2.83,8.616,2.844,8.555,2.705L8,1.437z"/>
</g>
</svg>
